<?xml version="1.0" encoding="UTF-8" standalone="no"?>
<!-- Created with Inkscape (http://www.inkscape.org/) -->

<svg
   width="893"
   height="216"
   viewBox="0 0 236.27291 57.149999"
   version="1.1"
   id="svg1"
   xmlns="http://www.w3.org/2000/svg"
   xmlns:svg="http://www.w3.org/2000/svg">
  <defs
     id="defs1">
    <rect
       x="-5785.2939"
       y="7771.29"
       width="39935.797"
       height="2633.604"
       id="rect16" />
    <rect
       x="4403.731"
       y="2590.4299"
       width="19039.66"
       height="2115.5178"
       id="rect14" />
    <rect
       x="4058.3403"
       y="2676.7776"
       width="15931.145"
       height="2158.6917"
       id="rect13" />
    <rect
       x="5137.6865"
       y="2806.2993"
       width="13772.453"
       height="1597.4319"
       id="rect12" />
    <rect
       x="4058.3403"
       y="518.086"
       width="16708.273"
       height="1856.4749"
       id="rect11" />
  </defs>
  <g
     id="layer1">
    <text
       xml:space="preserve"
       transform="scale(0.26458333)"
       id="text11"
       style="font-size:1552.75px;font-family:Italianno;-inkscape-font-specification:'Italianno, @wght=600';font-variation-settings:'wght' 600;text-align:start;letter-spacing:400px;writing-mode:lr-tb;direction:ltr;white-space:pre;shape-inside:url(#rect12);fill:#ffffff;fill-opacity:1;stroke:none" />
    <g
       id="g16"
       transform="matrix(0.05001567,0,0,0.05002215,0,-2.4608673e-6)"
       style="stroke-width:19.9925">
      <g
         id="g10"
         transform="matrix(0.31651367,0,0,0.30604942,-3.6156541,255.20936)"
         style="stroke-width:64.2352">
        <path
           id="path1"
           style="font-variation-settings:'wght' 600;fill:#7db1de;fill-opacity:1;stroke-width:16.9956"
           d="m 2501.6538,1125.173 c 0,331.6189 -131.086,649.6658 -364.4401,884.2212 -233.354,234.5554 -549.8754,366.4203 -879.98,366.6055 C 927.12907,2376.1849 610.46132,2244.6751 376.84664,2010.3816 143.23197,1776.0881 11.792502,1458.1885 11.423872,1126.5698 11.055244,794.95116 215.43192,444.4181 420.57313,184.82499 642.24324,-95.684402 1311.5682,-833.88285 1311.5682,-833.88285 c 0,0 612.6488,770.291208 777.9852,1004.32251 190.9075,270.22674 411.36,620.32172 412.0973,951.93974 l -1245.1122,2.7936 z" />
        <path
           id="path7"
           style="font-variation-settings:'wght' 600;fill:#ffffff;fill-opacity:1;stroke:none;stroke-width:16.9956"
           d="m 2359.2848,1129.1976 c 0,303.2956 -115.4518,594.1783 -320.9747,808.7005 -205.5228,214.5222 -484.2939,335.1246 -775.0283,335.294 C 972.54785,2273.3615 693.64783,2153.0838 487.89542,1938.8012 282.14302,1724.5185 166.37988,1433.7705 166.05522,1130.4751 165.73056,827.17974 345.73199,506.58546 526.40685,269.16402 721.63919,12.612738 1311.1361,-662.5367 1311.1361,-662.5367 c 0,0 539.5805,704.501177 685.1979,918.54403 168.1387,247.14686 362.2987,567.34048 362.9482,870.63527 l -1096.6126,2.555 z" />
        <path
           id="path9"
           style="font-variation-settings:'wght' 600;fill:#7db1de;fill-opacity:1;stroke:none;stroke-width:16.9956"
           d="m 2313.5926,1155.7204 c 0,287.1785 -111.2426,562.6036 -309.2725,765.7261 -198.0298,203.1224 -466.6374,317.316 -746.7722,317.4764 C 977.41368,2239.0833 708.68195,2125.1972 510.43085,1922.3016 312.17986,1719.4059 200.63722,1444.1083 200.32449,1156.93 c -0.31294,-287.17819 755.70294,3.2639 929.79071,-221.54088 188.1145,-242.9181 151.9457,69.84348 151.9457,69.84348 0,0 -41.072,-273.54653 99.2365,-70.87797 162.0087,234.01347 931.6669,-68.23112 932.2927,218.94657 l -1056.6319,2.4192 z" />
        <path
           style="font-variation-settings:'wght' 600;fill:#7db1de;fill-opacity:1;stroke:none;stroke-width:16.9956"
           d="M 205.61537,1095.0278 2296.0384,1083.6048 1290.8077,55.527872 Z"
           id="path10" />
        <rect
           style="font-variation-settings:'wght' 600;fill:#ffffff;fill-opacity:1;stroke:none;stroke-width:16.9956"
           id="rect10"
           width="260"
           height="260"
           x="969.37402"
           y="1267.9615" />
        <rect
           style="font-variation-settings:'wght' 600;fill:#ffffff;fill-opacity:1;stroke:none;stroke-width:16.9956"
           id="rect10-7"
           width="260"
           height="260"
           x="1297.0959"
           y="1589.776" />
        <rect
           style="font-variation-settings:'wght' 600;fill:#ffffff;fill-opacity:1;stroke:none;stroke-width:16.9956"
           id="rect10-9"
           width="260"
           height="260"
           x="969.37402"
           y="1589.7764" />
        <rect
           style="font-variation-settings:'wght' 600;fill:#ffffff;fill-opacity:1;stroke:none;stroke-width:16.9956"
           id="rect10-5"
           width="260"
           height="260"
           x="1297.0959"
           y="1267.962" />
      </g>
      <path
         style="font-size:1374.36px;font-family:Montserrat;-inkscape-font-specification:'Montserrat, @wght=600';font-variation-settings:'wght' 600;letter-spacing:400px;white-space:pre;fill:#7db1de;stroke-width:14.7197"
         d="m 4632.8223,1948.4504 q -109.9488,0 -204.7796,-35.7333 -93.4565,-37.1077 -163.5489,-103.077 -68.718,-67.3437 -107.2,-158.0514 -38.4821,-90.7078 -38.4821,-197.9079 0,-107.2 38.4821,-197.9078 38.482,-90.7078 108.5744,-156.677 70.0924,-67.3437 163.5488,-103.07703 93.4565,-37.10772 204.7797,-37.10772 118.1949,0 215.7745,41.23075 97.5796,39.8565 164.9232,119.5694 l -115.4462,108.5744 q -52.2257,-56.3488 -116.8206,-83.836 -64.595,-28.8615 -140.1848,-28.8615 -75.5898,0 -138.8103,24.7385 -61.8462,24.7384 -108.5745,70.0923 -45.3538,45.3539 -71.4667,107.2001 -24.7385,61.8462 -24.7385,136.0616 0,74.2155 24.7385,136.0617 26.1129,61.8462 71.4667,107.2001 46.7283,45.3538 108.5745,70.0923 63.2205,24.7385 138.8103,24.7385 75.5898,0 140.1848,-27.4872 64.5949,-28.8616 116.8206,-86.5847 l 115.4462,109.9488 q -67.3436,78.3385 -164.9232,119.5693 -97.5796,41.2308 -217.1489,41.2308 z m 941.4984,-13.7436 V 972.65485 h 178.6668 v 810.87235 h 503.0158 v 151.1796 z m 1223.2429,0 V 972.65485 h 702.298 v 149.80525 h -523.6312 v 662.4415 h 542.8722 v 149.8052 z m 164.9232,-415.0567 v -147.0565 h 478.2773 v 147.0565 z m 1019.8365,415.0567 432.9234,-962.05195 h 175.918 l 434.2978,962.05195 h -186.913 L 8466.098,1067.4857 h 71.4667 l -371.0772,867.2211 z m 199.2822,-222.6463 48.1026,-140.1847 h 519.508 l 48.1026,140.1847 z m 1366.1756,222.6463 V 972.65485 h 394.4414 q 192.4105,0 300.9845,90.70775 109.949,90.7078 109.949,251.5079 0,105.8257 -49.477,182.7899 -49.477,75.5898 -141.559,116.8206 -90.708,39.8564 -218.5232,39.8564 h -296.8617 l 79.7128,-81.0872 v 361.4566 z m 629.4569,0 -243.2617,-349.0874 h 191.0357 l 244.636,349.0874 z m -450.7901,-342.2156 -79.7128,-85.2103 h 288.6156 q 118.1953,0 177.2923,-50.8513 60.472,-50.8514 60.472,-141.5591 0,-92.0821 -60.472,-141.5591 -59.097,-49.477 -177.2923,-49.477 h -288.6156 l 79.7128,-87.959 z M 10952.44,1934.7068 V 972.65485 h 178.667 v 810.87235 h 503.015 v 151.1796 z m 1223.243,0 V 972.65485 h 178.666 v 962.05195 z m 838.421,0 V 972.65485 h 147.056 l 603.344,740.78005 h -72.841 V 972.65485 h 177.293 v 962.05195 h -147.057 l -603.344,-740.78 h 72.841 v 740.78 z m 1513.23,0 V 972.65485 h 702.298 v 149.80525 h -523.631 v 662.4415 h 542.872 v 149.8052 z m 164.924,-415.0567 v -147.0565 h 478.277 v 147.0565 z"
         id="text10"
         transform="matrix(0.34715455,0,0,0.37199174,-593.60948,-156.70706)"
         aria-label="CLEARLINE" />
      <text
         xml:space="preserve"
         transform="matrix(0.26458333,0,0,0.26458333,-251.30799,82.295057)"
         id="text13"
         style="font-size:1552.75px;font-family:Italianno;-inkscape-font-specification:'Italianno, @wght=600';font-variation-settings:'wght' 600;text-align:start;letter-spacing:400px;writing-mode:lr-tb;direction:ltr;white-space:pre;shape-inside:url(#rect14);fill:#ffffff;fill-opacity:1;stroke:none;stroke-width:19.9925"><tspan
           x="4403.7305"
           y="4007.0506"
           id="tspan1"> </tspan></text>
      <path
         style="font-size:1476.01px;font-family:Sans;-inkscape-font-specification:'Sans, Normal';font-variation-settings:'wght' 600;letter-spacing:300px;white-space:pre;fill:#7db1de;stroke-width:25.6237"
         d="m -4934.1368,9187.91 h -707.0146 V 8114.7757 h 707.0146 v 126.8446 h -564.3144 v 294.0489 h 564.3144 v 126.8446 h -564.3144 v 398.5516 h 564.3144 z m 1345.0266,-1073.1343 -370.4439,530.4411 369.7232,542.6932 h -165.0421 l -292.6075,-441.794 -299.8145,441.794 h -155.6729 l 374.0474,-536.2068 -365.3989,-536.9275 h 164.3214 l 289.0039,436.0284 295.4903,-436.0284 z m 1257.821,126.8446 h -383.4167 V 9187.91 h -142.7002 v -946.2897 h -383.4167 v -126.8446 h 909.5336 z m 1151.1561,946.2897 h -707.0146 V 8114.7757 h 707.0146 v 126.8446 h -564.3144 v 294.0489 h 564.3144 v 126.8446 h -564.3144 v 398.5516 h 564.3144 z m 1414.21481,0 H 48.859747 L -310.05284,8761.2508 H -511.13038 V 9187.91 H -653.83057 V 8114.7757 h 300.53525 q 97.29558,0 162.1593,12.9728 64.86372,12.252 116.754697,44.6839 58.377349,36.7561 90.809209,92.9713 33.152569,55.4945 33.152569,141.2588 0,116.034 -58.3773492,194.5911 -58.3773488,77.8365 -160.7178858,117.4754 z M -99.606104,8416.7524 q 0,-46.1253 -16.576286,-81.44 -15.85557,-36.0354 -53.33239,-60.5395 -30.99045,-20.9005 -73.51222,-28.8283 -42.52177,-8.6485 -100.17841,-8.6485 h -167.92497 v 405.0379 h 144.1416 q 67.74656,0 118.19612,-11.5313 50.44956,-12.2521 85.76425,-44.6839 32.43186,-30.2698 47.56673,-69.188 15.855576,-39.6389 15.855576,-100.1784 z M 1050.8292,9187.91 H 627.05292 v -109.5477 h 140.53806 v -854.039 H 627.05292 v -109.5476 h 423.77628 v 109.5476 H 910.29116 v 854.039 h 140.53804 z m 1342.8647,-949.8932 q 65.5844,72.0708 100.1784,176.5735 35.3147,104.5026 35.3147,237.1129 0,132.6103 -36.0354,237.8336 -35.3147,104.5027 -99.4577,174.4114 -66.3051,72.7915 -157.1143,109.5476 -90.0885,36.7561 -206.1225,36.7561 -113.1512,0 -206.1225,-37.4768 -92.2507,-37.4768 -157.1144,-108.8269 -64.8637,-71.3501 -100.1784,-175.1321 -34.594,-103.7819 -34.594,-237.1129 0,-131.1689 34.594,-234.9508 34.594,-104.5027 100.8991,-178.7356 63.4223,-70.6294 157.1144,-108.1062 94.4127,-37.4768 205.4018,-37.4768 115.3132,0 206.8432,38.1975 92.2506,37.4768 156.3936,107.3855 z m -12.9727,413.6864 q 0,-209.0053 -93.6921,-322.1565 -93.692,-113.8718 -255.8513,-113.8718 -163.6007,0 -257.2928,113.8718 -92.9713,113.1512 -92.9713,322.1565 0,211.1674 95.1334,323.5979 95.1335,111.7097 255.1307,111.7097 159.9972,0 254.4099,-111.7097 95.1335,-112.4305 95.1335,-323.5979 z M 3943.4015,9187.91 H 3758.1796 L 3399.267,8761.2508 H 3198.1894 V 9187.91 H 3055.4893 V 8114.7757 h 300.5352 q 97.2956,0 162.1593,12.9728 64.8637,12.252 116.7547,44.6839 58.3773,36.7561 90.8092,92.9713 33.1526,55.4945 33.1526,141.2588 0,116.034 -58.3774,194.5911 -58.3773,77.8365 -160.7179,117.4754 z m -333.6878,-771.1576 q 0,-46.1253 -16.5763,-81.44 -15.8555,-36.0354 -53.3324,-60.5395 -30.9904,-20.9005 -73.5122,-28.8283 -42.5217,-8.6485 -100.1784,-8.6485 h -167.925 v 405.0379 h 144.1416 q 67.7466,0 118.1962,-11.5313 50.4495,-12.2521 85.7642,-44.6839 32.4319,-30.2698 47.5667,-69.188 15.8556,-39.6389 15.8556,-100.1784 z m 2419.788,693.3211 q -39.6389,17.297 -72.0708,32.4319 -31.7111,15.1348 -83.6021,31.7111 -43.9632,13.6935 -95.8542,23.0627 -51.1702,10.0899 -113.1511,10.0899 -116.7547,0 -212.6089,-32.4319 -95.1335,-33.1526 -165.7628,-103.0612 -69.188,-68.4673 -108.1062,-173.6907 -38.9183,-105.944 -38.9183,-245.7614 0,-132.6103 37.4768,-237.1129 37.4769,-104.5027 108.1062,-176.5735 68.4673,-69.9087 165.0422,-106.6648 97.2956,-36.7561 215.4917,-36.7561 86.4849,0 172.2492,20.9005 86.4849,20.9006 191.7083,73.5123 v 169.3663 h -10.8106 q -88.6471,-74.2329 -175.8528,-108.1062 -87.2056,-33.8732 -186.6633,-33.8732 -81.44,0 -147.0245,26.6662 -64.8637,25.9455 -116.034,81.44 -49.7288,54.0531 -77.8364,136.9345 -27.3869,82.1607 -27.3869,190.2669 0,113.1512 30.2697,194.5912 30.9905,81.44 79.2779,132.6102 50.4495,53.3324 117.4754,79.2779 67.7465,25.2248 142.7002,25.2248 103.0612,0 193.1497,-35.3147 90.0885,-35.3147 168.6457,-105.9441 h 10.0899 z m 1180.7051,77.8365 h -678.907 V 8114.7757 H 6674 v 946.2897 h 536.2068 z m 1149.714,0 H 7652.9063 V 8114.7757 h 707.0145 v 126.8446 h -564.3144 v 294.0489 h 564.3144 v 126.8446 h -564.3144 v 398.5516 h 564.3144 z m 1372.414,0 h -152.0694 l -105.2233,-299.0939 h -464.136 L 8905.6828,9187.91 h -144.8624 l 390.6238,-1073.1343 h 190.2669 z m -301.2559,-421.6142 -188.1048,-526.8376 -188.8255,526.8376 z M 11013.939,9187.91 h -176.573 l -508.82,-959.9831 V 9187.91 h -133.331 V 8114.7757 h 221.257 l 464.136,876.381 v -876.381 h 133.331 z m 963.772,0 h -423.777 v -109.5477 h 140.538 v -854.039 h -140.538 v -109.5476 h 423.777 v 109.5476 h -140.538 v 854.039 h 140.538 z m 1361.602,0 h -176.573 l -508.82,-959.9831 V 9187.91 h -133.331 V 8114.7757 h 221.257 l 464.136,876.381 v -876.381 h 133.331 z m 1480.52,-79.2779 q -87.926,40.3596 -192.429,70.6294 -103.782,29.549 -201.077,29.549 -125.404,0 -229.906,-34.594 -104.503,-34.594 -178.015,-103.7819 -74.233,-69.9087 -114.593,-174.4114 -40.359,-105.2234 -40.359,-245.7614 0,-257.2928 149.907,-405.7586 150.628,-149.1866 412.966,-149.1866 91.53,0 186.663,22.342 95.854,21.6212 206.123,74.2329 v 169.3664 h -12.973 q -22.342,-17.297 -64.864,-45.4046 -42.522,-28.1076 -83.602,-46.8461 -49.729,-22.3419 -113.151,-36.7561 -62.702,-15.1348 -142.7,-15.1348 -180.177,0 -285.401,116.034 -104.502,115.3132 -104.502,312.7872 0,208.2847 109.547,324.3186 109.548,115.3133 298.373,115.3133 69.188,0 137.656,-13.6934 69.187,-13.6935 121.078,-35.3147 v -263.0584 h -287.562 v -125.4032 h 428.821 z"
         id="text16"
         transform="matrix(0.18879501,0,0,0.22572719,1926.0672,-1165.1703)"
         aria-label="EXTERIOR CLEANING" />
    </g>
  </g>
</svg>
